<svg xmlns="http://www.w3.org/2000/svg" width="261.12" height="355.2"><g transform="matrix(1.17499 0 0 1.1428 -544.646 1243.796)"><rect width="222.232" height="310.814" x="463.533" y="-1088.37" rx="10.63" ry="10.63" style="display:inline;fill:#fff;fill-opacity:1;stroke:#000000;stroke-width:.996732;stroke-miterlimit:4;stroke-dasharray:none;stroke-opacity:1"/><path d="M574.645-956.471c-9.774.212-14.157 11.217-6.918 19.763 1.05 1.246 1.158 1.962-.765.764-4.873-3.259-14.219-1.116-14.697 8.848-.592 12.277 16.562 15.814 19.783 2.76.17-1.378 1.29-1.347 1.02.608-.294 5.307-1.951 10.267-4.229 15.103h11.62c-2.277-4.836-3.935-9.796-4.228-15.103-.27-1.955.85-1.986 1.02-.609 3.22 13.055 20.374 9.518 19.783-2.76-.478-9.963-9.824-12.106-14.698-8.847-1.923 1.198-1.814.482-.764-.764 7.239-8.546 2.856-19.551-6.919-19.763h-.01zM668.627-827.37c3.91-.088 5.663-4.673 2.768-8.234-.42-.52-.464-.817.306-.318 1.95 1.358 5.687.465 5.879-3.687.236-5.115-6.625-6.59-7.914-1.15-.067.574-.516.561-.408-.253.118-2.211.78-4.278 1.692-6.293h-4.648c.911 2.015 1.574 4.082 1.691 6.293.108.814-.34.827-.407.253-1.289-5.44-8.15-3.965-7.914 1.15.192 4.152 3.93 5.045 5.88 3.687.768-.5.725-.201.305.318-2.896 3.561-1.142 8.146 2.767 8.235.001 0 0 0 0 0zM470.625-1041.682v-2.812h2.68l5.71-30.082h3.25l6.29 30.082h2.164v2.812h-7.375v-2.812h1.99l-.794-4.61h-7.44l-.575 4.61h1.99v2.812zm13.28-10.706-3.235-16.1-3.03 16.1zM658.577-824.244v2.813h2.68l5.71 30.082h3.25l6.29-30.082h2.164v-2.813h-7.375v2.813h1.99l-.794 4.61h-7.44l-.575-4.61h1.99v-2.813zm13.28 10.707-3.234 16.1-3.03-16.1zM480.672-1038.556c-3.91.088-5.663 4.674-2.767 8.235.42.519.463.817-.306.318-1.95-1.358-5.687-.465-5.879 3.686-.236 5.116 6.625 6.59 7.914 1.15.067-.574.515-.56.407.254-.117 2.211-.78 4.278-1.691 6.293h4.648c-.911-2.015-1.574-4.082-1.692-6.293-.108-.814.34-.828.408-.254 1.288 5.44 8.15 3.966 7.914-1.15-.192-4.151-3.93-5.044-5.88-3.686-.769.499-.725.201-.305-.318 2.895-3.561 1.142-8.147-2.768-8.235z" style="display:inline;opacity:1"/></g><g transform="translate(-351.966 143.937)"><rect width="1659.913" height="794.398" x="-356.473" y="-1029.682" rx="144.482" ry="124.682" style="opacity:1;vector-effect:none;fill:#006614;fill-opacity:1;stroke:none;stroke-width:1.74801;stroke-linecap:butt;stroke-linejoin:miter;stroke-miterlimit:4;stroke-dasharray:none;stroke-dashoffset:0;stroke-opacity:1"/><text xml:space="preserve" x="472.194" y="-935.813" style="font-style:normal;font-variant:normal;font-weight:400;font-stretch:normal;font-size:42.6667px;line-height:125%;font-family:Carlito;-inkscape-font-specification:&quot;Carlito, Normal&quot;;text-align:center;letter-spacing:0;word-spacing:0;writing-mode:lr-tb;text-anchor:middle;fill:#fff;fill-opacity:1;stroke:none;stroke-width:1.06667px;stroke-linecap:butt;stroke-linejoin:miter;stroke-opacity:1"><tspan x="472.194" y="-935.813" style="font-style:normal;font-variant:normal;font-weight:400;font-stretch:normal;font-size:48px;line-height:125%;font-family:Carlito;-inkscape-font-specification:&quot;Carlito, Normal&quot;;text-align:center;writing-mode:lr-tb;text-anchor:middle;fill:#fff;fill-opacity:1;stroke-width:1.06667px">Single Playing Card from:</tspan><tspan x="472.194" y="-875.813" style="font-style:normal;font-variant:normal;font-weight:400;font-stretch:normal;font-size:48px;line-height:125%;font-family:Carlito;-inkscape-font-specification:&quot;Carlito, Normal&quot;;text-align:center;writing-mode:lr-tb;text-anchor:middle;fill:#fff;fill-opacity:1;stroke-width:1.06667px">Standard Edition - Color Set - Bordered </tspan><tspan x="472.194" y="-762.48" style="font-style:normal;font-variant:normal;font-weight:400;font-stretch:normal;font-size:48px;line-height:125%;font-family:Carlito;-inkscape-font-specification:&quot;Carlito, Normal&quot;;text-align:center;writing-mode:lr-tb;text-anchor:middle;fill:#faa;fill-opacity:1;stroke-width:1.06667px">Copyright 2011, 2020 - Chris Aguilar - conjurenation@gmail.com</tspan><tspan x="472.194" y="-649.147" style="font-style:normal;font-variant:normal;font-weight:400;font-stretch:normal;font-size:48px;line-height:125%;font-family:Carlito;-inkscape-font-specification:&quot;Carlito, Normal&quot;;text-align:center;writing-mode:lr-tb;text-anchor:middle;fill:#fff;fill-opacity:1;stroke-width:1.06667px">https://totalnonsense.com/open-source-vector-playing-cards/</tspan><tspan x="472.194" y="-535.813" style="font-style:normal;font-variant:normal;font-weight:400;font-stretch:normal;font-size:48px;line-height:125%;font-family:Carlito;-inkscape-font-specification:&quot;Carlito, Normal&quot;;text-align:center;writing-mode:lr-tb;text-anchor:middle;fill:#faa;fill-opacity:1;stroke-width:1.06667px">Licensed under:</tspan><tspan x="472.194" y="-475.813" style="font-style:normal;font-variant:normal;font-weight:400;font-stretch:normal;font-size:48px;line-height:125%;font-family:Carlito;-inkscape-font-specification:&quot;Carlito, Normal&quot;;text-align:center;writing-mode:lr-tb;text-anchor:middle;fill:#faa;fill-opacity:1;stroke-width:1.06667px">LGPL 3.0</tspan><tspan x="472.194" y="-415.813" style="font-style:normal;font-variant:normal;font-weight:400;font-stretch:normal;font-size:48px;line-height:125%;font-family:Carlito;-inkscape-font-specification:&quot;Carlito, Normal&quot;;text-align:center;writing-mode:lr-tb;text-anchor:middle;fill:#faa;fill-opacity:1;stroke-width:1.06667px">https://www.gnu.org/licenses/lgpl-3.0.html</tspan><tspan x="472.194" y="-302.48" style="font-style:normal;font-variant:normal;font-weight:400;font-stretch:normal;font-size:48px;line-height:125%;font-family:Carlito;-inkscape-font-specification:&quot;Carlito, Normal&quot;;text-align:center;writing-mode:lr-tb;text-anchor:middle;fill:#fff;fill-opacity:1;stroke-width:1.06667px">Each Card Measures (63mm x 88mm)</tspan></text></g></svg>