<svg xmlns="http://www.w3.org/2000/svg" width="261.12" height="355.2"><g style="display:inline"><g style="display:inline;opacity:1"><rect width="223.228" height="311.811" x="260.433" y="370.276" rx="10.678" ry="10.664" style="display:inline;fill:#fff;fill-opacity:1;stroke:none;stroke-width:1.00057;stroke-miterlimit:4;stroke-dasharray:none;stroke-opacity:1" transform="matrix(1.16974 0 0 1.13915 -304.64 -421.8)"/></g><path d="M-95.397-140.121s-2.225-3.19-5.226-6.94c-2.007-2.51-3.612-5.228-3.762-7.568-.17-2.674 1.45-5.357 4.383-5.487 2.93-.13 4.12 2.062 4.605 3.869.485-1.807 1.674-3.999 4.606-3.869 2.933.13 4.553 2.813 4.382 5.487-.15 2.34-1.754 5.058-3.762 7.568-3.001 3.75-5.226 6.94-5.226 6.94zM93.398 31.743s-2.225 3.19-5.226 6.94c-2.008 2.51-3.613 5.228-3.762 7.568-.171 2.674 1.449 5.357 4.382 5.487 2.931.13 4.121-2.062 4.606-3.869.484 1.807 1.674 3.999 4.605 3.869 2.933-.13 4.553-2.813 4.382-5.487-.149-2.34-1.754-5.058-3.762-7.567-3-3.75-5.225-6.94-5.225-6.94zM-1-30.189s-4.666-7.655-10.961-16.656c-4.211-6.023-7.578-12.546-7.89-18.163-.36-6.418 3.039-12.856 9.19-13.168 6.15-.312 8.645 4.948 9.66 9.285 1.017-4.337 3.513-9.597 9.661-9.285 6.152.312 9.55 6.75 9.192 13.168-.313 5.617-3.68 12.14-7.891 18.163C3.666-37.845-1-30.19-1-30.19z" style="display:inline;opacity:1;fill:#c8102e;fill-opacity:1" transform="matrix(1.16974 0 0 1.13915 131.73 239.334)"/><path d="M446.51-1017.162v-2.822h2.692l5.735-30.178h3.265l6.318 30.178h2.174v2.822h-7.408v-2.822h1.999l-.799-4.625h-7.473l-.578 4.625h2v2.822zm13.339-10.741-3.25-16.152-3.042 16.152zm0 0" style="opacity:1;fill:#c8102e;fill-opacity:1;stroke-width:1;stroke-miterlimit:4;stroke-dasharray:none" transform="matrix(1.16974 0 0 1.13915 -513.97 1212.062)"/><path d="M635.304-799.027v2.822h2.692l5.736 30.178h3.264l6.318-30.178h2.174v-2.822h-7.408v2.822h2l-.8 4.625h-7.473l-.577-4.625h2v-2.822zm13.34 10.741-3.25 16.153-3.043-16.153zm0 0" style="opacity:1;fill:#c8102e;fill-opacity:1" transform="matrix(1.16974 0 0 1.13915 -513.97 1212.062)"/></g><g transform="translate(-302.067 144.057)"><rect width="1659.913" height="794.398" x="-356.473" y="-1029.682" rx="144.482" ry="124.682" style="opacity:1;vector-effect:none;fill:#006614;fill-opacity:1;stroke:none;stroke-width:1.74801;stroke-linecap:butt;stroke-linejoin:miter;stroke-miterlimit:4;stroke-dasharray:none;stroke-dashoffset:0;stroke-opacity:1"/><text xml:space="preserve" x="472.194" y="-935.813" style="font-style:normal;font-variant:normal;font-weight:400;font-stretch:normal;font-size:42.6667px;line-height:125%;font-family:Carlito;-inkscape-font-specification:&quot;Carlito, Normal&quot;;text-align:center;letter-spacing:0;word-spacing:0;writing-mode:lr-tb;text-anchor:middle;fill:#fff;fill-opacity:1;stroke:none;stroke-width:1.06667px;stroke-linecap:butt;stroke-linejoin:miter;stroke-opacity:1"><tspan x="472.194" y="-935.813" style="font-style:normal;font-variant:normal;font-weight:400;font-stretch:normal;font-size:48px;line-height:125%;font-family:Carlito;-inkscape-font-specification:&quot;Carlito, Normal&quot;;text-align:center;writing-mode:lr-tb;text-anchor:middle;fill:#fff;fill-opacity:1;stroke-width:1.06667px">Single Playing Card from:</tspan><tspan x="472.194" y="-875.813" style="font-style:normal;font-variant:normal;font-weight:400;font-stretch:normal;font-size:48px;line-height:125%;font-family:Carlito;-inkscape-font-specification:&quot;Carlito, Normal&quot;;text-align:center;writing-mode:lr-tb;text-anchor:middle;fill:#fff;fill-opacity:1;stroke-width:1.06667px">Standard Edition - Color Set - Bordered </tspan><tspan x="472.194" y="-762.48" style="font-style:normal;font-variant:normal;font-weight:400;font-stretch:normal;font-size:48px;line-height:125%;font-family:Carlito;-inkscape-font-specification:&quot;Carlito, Normal&quot;;text-align:center;writing-mode:lr-tb;text-anchor:middle;fill:#faa;fill-opacity:1;stroke-width:1.06667px">Copyright 2011, 2020 - Chris Aguilar - conjurenation@gmail.com</tspan><tspan x="472.194" y="-649.147" style="font-style:normal;font-variant:normal;font-weight:400;font-stretch:normal;font-size:48px;line-height:125%;font-family:Carlito;-inkscape-font-specification:&quot;Carlito, Normal&quot;;text-align:center;writing-mode:lr-tb;text-anchor:middle;fill:#fff;fill-opacity:1;stroke-width:1.06667px">https://totalnonsense.com/open-source-vector-playing-cards/</tspan><tspan x="472.194" y="-535.813" style="font-style:normal;font-variant:normal;font-weight:400;font-stretch:normal;font-size:48px;line-height:125%;font-family:Carlito;-inkscape-font-specification:&quot;Carlito, Normal&quot;;text-align:center;writing-mode:lr-tb;text-anchor:middle;fill:#faa;fill-opacity:1;stroke-width:1.06667px">Licensed under:</tspan><tspan x="472.194" y="-475.813" style="font-style:normal;font-variant:normal;font-weight:400;font-stretch:normal;font-size:48px;line-height:125%;font-family:Carlito;-inkscape-font-specification:&quot;Carlito, Normal&quot;;text-align:center;writing-mode:lr-tb;text-anchor:middle;fill:#faa;fill-opacity:1;stroke-width:1.06667px">LGPL 3.0</tspan><tspan x="472.194" y="-415.813" style="font-style:normal;font-variant:normal;font-weight:400;font-stretch:normal;font-size:48px;line-height:125%;font-family:Carlito;-inkscape-font-specification:&quot;Carlito, Normal&quot;;text-align:center;writing-mode:lr-tb;text-anchor:middle;fill:#faa;fill-opacity:1;stroke-width:1.06667px">https://www.gnu.org/licenses/lgpl-3.0.html</tspan><tspan x="472.194" y="-302.48" style="font-style:normal;font-variant:normal;font-weight:400;font-stretch:normal;font-size:48px;line-height:125%;font-family:Carlito;-inkscape-font-specification:&quot;Carlito, Normal&quot;;text-align:center;writing-mode:lr-tb;text-anchor:middle;fill:#fff;fill-opacity:1;stroke-width:1.06667px">Each Card Measures (63mm x 88mm)</tspan></text></g></svg>