<svg xmlns="http://www.w3.org/2000/svg" width="261.12" height="355.2"><g style="display:inline" transform="matrix(1.16974 0 0 1.13915 -389.066 537.005)"><rect width="223.228" height="311.811" x="332.608" y="-471.408" rx="10.678" ry="10.664" style="display:inline;opacity:1;fill:#fff;fill-opacity:1;stroke:none;stroke-width:1.00057;stroke-miterlimit:4;stroke-dasharray:none;stroke-opacity:1"/><path d="M349.826-421.435c-4.311 5.482-8.923 8.637-9 12.914-.026 1.385.814 3.739 3.444 4.19 1.706.29 4.056-.941 4.105-3.443-.01-.498.591-.485.585.197-.08 1.974-.78 4.272-1.958 6.142h5.647c-1.177-1.87-1.878-4.168-1.958-6.142-.01-.682.593-.695.585-.197.05 2.502 2.399 3.733 4.105 3.442 2.63-.45 3.47-2.804 3.444-4.189-.077-4.277-4.689-7.432-9-12.914zM538.62-209.57c-4.31-5.482-8.923-8.637-9-12.914-.025-1.385.815-3.74 3.445-4.19 1.706-.29 4.055.94 4.104 3.443-.01.498.592.485.586-.197-.08-1.974-.781-4.272-1.958-6.142h5.646c-1.177 1.87-1.878 4.168-1.958 6.142-.01.682.593.695.586.197.049-2.502 2.398-3.734 4.105-3.443 2.63.45 3.47 2.805 3.443 4.19-.077 4.277-4.688 7.432-8.999 12.914zM444.222-339.503c-9.226 13.157-19.097 20.729-19.261 30.994-.055 3.324 1.742 8.973 7.37 10.054 3.653.699 8.68-2.257 8.786-8.262-.016-1.196 1.266-1.165 1.254.474-.172 4.736-1.672 10.251-4.192 14.74h12.086c-2.52-4.489-4.019-10.004-4.191-14.74-.012-1.639 1.27-1.67 1.254-.474.105 6.005 5.133 8.96 8.785 8.262 5.629-1.08 7.426-6.73 7.371-10.054-.164-10.265-10.036-17.837-19.262-30.994zM339.732-424.57v-2.822h2.692l5.736-30.178h3.264l6.318 30.178h2.174v2.822h-7.408v-2.822h2l-.8-4.625h-7.473l-.577 4.625h1.999v2.822zm13.34-10.741-3.25-16.153-3.043 16.153zM528.527-206.435v2.822h2.692l5.735 30.178h3.265l6.318-30.178h2.174v-2.822h-7.409v2.822h2l-.799 4.625h-7.473l-.578-4.625h2v-2.822zm13.339 10.741-3.25 16.152-3.043-16.152zm0 0" style="display:inline;opacity:1"/></g><g transform="translate(-332.05 174.04)"><rect width="1659.913" height="794.398" x="-356.473" y="-1029.682" rx="144.482" ry="124.682" style="opacity:1;vector-effect:none;fill:#006614;fill-opacity:1;stroke:none;stroke-width:1.74801;stroke-linecap:butt;stroke-linejoin:miter;stroke-miterlimit:4;stroke-dasharray:none;stroke-dashoffset:0;stroke-opacity:1"/><text xml:space="preserve" x="472.194" y="-935.813" style="font-style:normal;font-variant:normal;font-weight:400;font-stretch:normal;font-size:42.6667px;line-height:125%;font-family:Carlito;-inkscape-font-specification:&quot;Carlito, Normal&quot;;text-align:center;letter-spacing:0;word-spacing:0;writing-mode:lr-tb;text-anchor:middle;fill:#fff;fill-opacity:1;stroke:none;stroke-width:1.06667px;stroke-linecap:butt;stroke-linejoin:miter;stroke-opacity:1"><tspan x="472.194" y="-935.813" style="font-style:normal;font-variant:normal;font-weight:400;font-stretch:normal;font-size:48px;line-height:125%;font-family:Carlito;-inkscape-font-specification:&quot;Carlito, Normal&quot;;text-align:center;writing-mode:lr-tb;text-anchor:middle;fill:#fff;fill-opacity:1;stroke-width:1.06667px">Single Playing Card from:</tspan><tspan x="472.194" y="-875.813" style="font-style:normal;font-variant:normal;font-weight:400;font-stretch:normal;font-size:48px;line-height:125%;font-family:Carlito;-inkscape-font-specification:&quot;Carlito, Normal&quot;;text-align:center;writing-mode:lr-tb;text-anchor:middle;fill:#fff;fill-opacity:1;stroke-width:1.06667px">Standard Edition - Color Set - Bordered </tspan><tspan x="472.194" y="-762.48" style="font-style:normal;font-variant:normal;font-weight:400;font-stretch:normal;font-size:48px;line-height:125%;font-family:Carlito;-inkscape-font-specification:&quot;Carlito, Normal&quot;;text-align:center;writing-mode:lr-tb;text-anchor:middle;fill:#faa;fill-opacity:1;stroke-width:1.06667px">Copyright 2011, 2020 - Chris Aguilar - conjurenation@gmail.com</tspan><tspan x="472.194" y="-649.147" style="font-style:normal;font-variant:normal;font-weight:400;font-stretch:normal;font-size:48px;line-height:125%;font-family:Carlito;-inkscape-font-specification:&quot;Carlito, Normal&quot;;text-align:center;writing-mode:lr-tb;text-anchor:middle;fill:#fff;fill-opacity:1;stroke-width:1.06667px">https://totalnonsense.com/open-source-vector-playing-cards/</tspan><tspan x="472.194" y="-535.813" style="font-style:normal;font-variant:normal;font-weight:400;font-stretch:normal;font-size:48px;line-height:125%;font-family:Carlito;-inkscape-font-specification:&quot;Carlito, Normal&quot;;text-align:center;writing-mode:lr-tb;text-anchor:middle;fill:#faa;fill-opacity:1;stroke-width:1.06667px">Licensed under:</tspan><tspan x="472.194" y="-475.813" style="font-style:normal;font-variant:normal;font-weight:400;font-stretch:normal;font-size:48px;line-height:125%;font-family:Carlito;-inkscape-font-specification:&quot;Carlito, Normal&quot;;text-align:center;writing-mode:lr-tb;text-anchor:middle;fill:#faa;fill-opacity:1;stroke-width:1.06667px">LGPL 3.0</tspan><tspan x="472.194" y="-415.813" style="font-style:normal;font-variant:normal;font-weight:400;font-stretch:normal;font-size:48px;line-height:125%;font-family:Carlito;-inkscape-font-specification:&quot;Carlito, Normal&quot;;text-align:center;writing-mode:lr-tb;text-anchor:middle;fill:#faa;fill-opacity:1;stroke-width:1.06667px">https://www.gnu.org/licenses/lgpl-3.0.html</tspan><tspan x="472.194" y="-302.48" style="font-style:normal;font-variant:normal;font-weight:400;font-stretch:normal;font-size:48px;line-height:125%;font-family:Carlito;-inkscape-font-specification:&quot;Carlito, Normal&quot;;text-align:center;writing-mode:lr-tb;text-anchor:middle;fill:#fff;fill-opacity:1;stroke-width:1.06667px">Each Card Measures (63mm x 88mm)</tspan></text></g></svg>