<svg xmlns="http://www.w3.org/2000/svg" width="261.12" height="355.2"><rect width="223.228" height="311.811" x="260.433" y="370.276" rx="10.678" ry="10.664" style="display:inline;fill:#fff;fill-opacity:1;stroke:#000000;stroke-width:1.00057;stroke-miterlimit:4;stroke-dasharray:none;stroke-opacity:1" transform="matrix(1.16974 0 0 1.13915 -304.64 -421.8)"/><path d="M838.87-1055.365c-9.774.212-14.157 11.218-6.918 19.764 1.05 1.246 1.158 1.962-.764.764-4.874-3.26-14.22-1.117-14.698 8.847-.591 12.277 16.563 15.815 19.783 2.76.17-1.377 1.29-1.346 1.02.61-.294 5.306-1.95 10.265-4.229 15.102h11.62c-2.277-4.837-3.934-9.796-4.228-15.103-.27-1.955.85-1.986 1.02-.609 3.22 13.055 20.374 9.517 19.783-2.76-.478-9.964-9.824-12.106-14.698-8.847-1.922 1.197-1.814.482-.764-.764 7.239-8.546 2.856-19.551-6.918-19.764h-.01zM838.87-809.732c-9.774-.212-14.157-11.217-6.918-19.763 1.05-1.246 1.158-1.962-.764-.764-4.874 3.259-14.22 1.116-14.698-8.848-.591-12.277 16.563-15.814 19.784-2.76.17 1.378 1.289 1.347 1.019-.609-.294-5.306-1.95-10.266-4.229-15.102h11.62c-2.277 4.836-3.934 9.796-4.228 15.102-.27 1.956.85 1.987 1.02.61 3.22-13.055 20.374-9.518 19.783 2.76-.478 9.963-9.824 12.106-14.698 8.847-1.922-1.198-1.814-.482-.764.764 7.239 8.546 2.856 19.551-6.918 19.763h-.01zM932.853-827.37c3.91-.088 5.663-4.673 2.767-8.234-.42-.52-.463-.817.306-.318 1.95 1.358 5.687.465 5.879-3.687.236-5.115-6.625-6.589-7.914-1.15-.067.574-.515.561-.407-.253.117-2.211.78-4.278 1.691-6.293h-4.648c.911 2.015 1.574 4.082 1.692 6.293.108.814-.34.827-.408.253-1.289-5.439-8.15-3.965-7.914 1.15.192 4.152 3.93 5.045 5.88 3.687.769-.5.725-.201.305.318-2.895 3.561-1.142 8.146 2.768 8.235zM744.898-1038.556c-3.91.088-5.663 4.674-2.768 8.235.42.519.464.817-.306.318-1.95-1.358-5.687-.465-5.879 3.686-.236 5.116 6.625 6.59 7.914 1.15.067-.574.516-.56.408.254-.118 2.211-.78 4.278-1.692 6.293h4.648c-.911-2.015-1.574-4.082-1.691-6.293-.108-.814.34-.828.407-.254 1.289 5.44 8.15 3.966 7.914-1.15-.192-4.151-3.93-5.044-5.88-3.686-.768.5-.725.201-.305-.318 2.895-3.561 1.142-8.147-2.767-8.235-.001 0 0 0 0 0z" style="display:inline;opacity:1" transform="matrix(1.17499 0 0 1.1428 -855.107 1243.796)"/><path d="m735.05-1041.752.16-2.028c.505-6.269 1.85-8.383 9.48-14.927 3.705-3.172 4.92-4.737 5.09-6.553.485-4.282-3.3-5.619-5.765-5.639-3.195-.029-6.81 1.918-5.084 6.442l-3.586 1.075c-.72-4.22.021-8.18 3.376-9.937 4.48-2.29 10.224-1.392 13.124 2.217 1.95 2.421 2.395 5.772 1.35 8.394-3.056 6.7-13.42 9.647-14.275 17.398h11.455v-4.316h3.375v7.944l-18.7-.07zM942.2-824.173l-.16 2.028c-.506 6.268-1.851 8.383-9.48 14.927-3.705 3.172-4.92 4.737-5.09 6.552-.485 4.283 3.3 5.62 5.765 5.64 3.195.028 6.81-1.918 5.084-6.442l3.585-1.075c.72 4.22-.02 8.18-3.375 9.936-4.48 2.291-10.224 1.393-13.125-2.216-1.95-2.421-2.395-5.772-1.349-8.394 3.055-6.7 13.42-9.647 14.274-17.398h-11.454v4.316H923.5v-7.945l18.7.071zm0 0" style="opacity:1" transform="matrix(1.17499 0 0 1.1428 -855.107 1243.796)"/><g transform="translate(-372.029 139.062)"><rect width="1659.913" height="794.398" x="-356.473" y="-1029.682" rx="144.482" ry="124.682" style="opacity:1;vector-effect:none;fill:#006614;fill-opacity:1;stroke:none;stroke-width:1.74801;stroke-linecap:butt;stroke-linejoin:miter;stroke-miterlimit:4;stroke-dasharray:none;stroke-dashoffset:0;stroke-opacity:1"/><text xml:space="preserve" x="472.194" y="-935.813" style="font-style:normal;font-variant:normal;font-weight:400;font-stretch:normal;font-size:42.6667px;line-height:125%;font-family:Carlito;-inkscape-font-specification:&quot;Carlito, Normal&quot;;text-align:center;letter-spacing:0;word-spacing:0;writing-mode:lr-tb;text-anchor:middle;fill:#fff;fill-opacity:1;stroke:none;stroke-width:1.06667px;stroke-linecap:butt;stroke-linejoin:miter;stroke-opacity:1"><tspan x="472.194" y="-935.813" style="font-style:normal;font-variant:normal;font-weight:400;font-stretch:normal;font-size:48px;line-height:125%;font-family:Carlito;-inkscape-font-specification:&quot;Carlito, Normal&quot;;text-align:center;writing-mode:lr-tb;text-anchor:middle;fill:#fff;fill-opacity:1;stroke-width:1.06667px">Single Playing Card from:</tspan><tspan x="472.194" y="-875.813" style="font-style:normal;font-variant:normal;font-weight:400;font-stretch:normal;font-size:48px;line-height:125%;font-family:Carlito;-inkscape-font-specification:&quot;Carlito, Normal&quot;;text-align:center;writing-mode:lr-tb;text-anchor:middle;fill:#fff;fill-opacity:1;stroke-width:1.06667px">Standard Edition - Color Set - Bordered </tspan><tspan x="472.194" y="-762.48" style="font-style:normal;font-variant:normal;font-weight:400;font-stretch:normal;font-size:48px;line-height:125%;font-family:Carlito;-inkscape-font-specification:&quot;Carlito, Normal&quot;;text-align:center;writing-mode:lr-tb;text-anchor:middle;fill:#faa;fill-opacity:1;stroke-width:1.06667px">Copyright 2011, 2020 - Chris Aguilar - conjurenation@gmail.com</tspan><tspan x="472.194" y="-649.147" style="font-style:normal;font-variant:normal;font-weight:400;font-stretch:normal;font-size:48px;line-height:125%;font-family:Carlito;-inkscape-font-specification:&quot;Carlito, Normal&quot;;text-align:center;writing-mode:lr-tb;text-anchor:middle;fill:#fff;fill-opacity:1;stroke-width:1.06667px">https://totalnonsense.com/open-source-vector-playing-cards/</tspan><tspan x="472.194" y="-535.813" style="font-style:normal;font-variant:normal;font-weight:400;font-stretch:normal;font-size:48px;line-height:125%;font-family:Carlito;-inkscape-font-specification:&quot;Carlito, Normal&quot;;text-align:center;writing-mode:lr-tb;text-anchor:middle;fill:#faa;fill-opacity:1;stroke-width:1.06667px">Licensed under:</tspan><tspan x="472.194" y="-475.813" style="font-style:normal;font-variant:normal;font-weight:400;font-stretch:normal;font-size:48px;line-height:125%;font-family:Carlito;-inkscape-font-specification:&quot;Carlito, Normal&quot;;text-align:center;writing-mode:lr-tb;text-anchor:middle;fill:#faa;fill-opacity:1;stroke-width:1.06667px">LGPL 3.0</tspan><tspan x="472.194" y="-415.813" style="font-style:normal;font-variant:normal;font-weight:400;font-stretch:normal;font-size:48px;line-height:125%;font-family:Carlito;-inkscape-font-specification:&quot;Carlito, Normal&quot;;text-align:center;writing-mode:lr-tb;text-anchor:middle;fill:#faa;fill-opacity:1;stroke-width:1.06667px">https://www.gnu.org/licenses/lgpl-3.0.html</tspan><tspan x="472.194" y="-302.48" style="font-style:normal;font-variant:normal;font-weight:400;font-stretch:normal;font-size:48px;line-height:125%;font-family:Carlito;-inkscape-font-specification:&quot;Carlito, Normal&quot;;text-align:center;writing-mode:lr-tb;text-anchor:middle;fill:#fff;fill-opacity:1;stroke-width:1.06667px">Each Card Measures (63mm x 88mm)</tspan></text></g></svg>