<svg xmlns="http://www.w3.org/2000/svg" width="261.12" height="355.2"><g transform="matrix(1.16974 0 0 1.13915 -1777.936 34.681)"><rect width="223.228" height="311.811" x="1519.936" y="-30.445" rx="10.678" ry="10.664" style="display:inline;fill:#fff;fill-opacity:1;stroke:none;stroke-width:1.00057;stroke-miterlimit:4;stroke-dasharray:none;stroke-opacity:1"/><path d="M1537.153 39.528c-2.16-3.568-4.434-7.037-7.275-10 2.84-2.962 5.114-6.43 7.275-10 2.16 3.57 4.434 7.038 7.275 10-2.84 2.963-5.114 6.432-7.275 10zM1683.316 50.25c-5.186-8.565-10.642-16.89-17.46-24 6.818-7.11 12.274-15.435 17.46-24 5.186 8.565 10.643 16.89 17.461 24-6.818 7.11-12.275 15.435-17.46 24zM1725.947 231.393c-2.16-3.569-4.434-7.037-7.275-10 2.841-2.963 5.115-6.431 7.275-10 2.161 3.569 4.435 7.037 7.276 10-2.841 2.963-5.115 6.431-7.275 10zM1579.784 50.25c-5.187-8.565-10.643-16.89-17.462-24 6.819-7.11 12.275-15.435 17.462-24 5.186 8.565 10.642 16.89 17.46 24-6.818 7.11-12.274 15.435-17.46 24zM1631.55 149.46c-5.186-8.564-10.643-16.888-17.461-24 6.818-7.11 12.275-15.434 17.46-24 5.187 8.566 10.643 16.89 17.462 24-6.819 7.112-12.275 15.436-17.461 24zM1579.784 248.676c-5.187-8.564-10.643-16.889-17.462-24 6.819-7.11 12.275-15.435 17.462-24 5.186 8.565 10.642 16.89 17.46 24-6.818 7.111-12.274 15.436-17.46 24zM1683.316 248.683c-5.186-8.565-10.642-16.889-17.46-24 6.818-7.11 12.274-15.435 17.46-24 5.186 8.565 10.643 16.89 17.461 24-6.818 7.111-12.275 15.435-17.46 24z" style="display:inline;opacity:1;fill:#c8102e;fill-opacity:1"/><path d="m1526.75 7.85 3.235-.031c.617 1.991 1.982 4.016 3.836 4.578 5.238 1.253 8.608-1.729 9.718-5.166 1.346-4.17-.03-10.025-3.636-12.103-2.988-1.724-7.428-.27-9.467 3.416l-2.265-1.411 1.216-13.74h14.8v3.248h-11.993l-.19 5.724c2.581-1.847 6.549-1.827 9.129-.532 4.887 2.374 7.157 7.772 6.209 14.134-1.317 6.328-4.22 9.913-10.768 10.425-7.283.067-9.855-5.034-9.824-8.542zM1736.348 243.072l-3.235.03c-.617-1.991-1.983-4.016-3.837-4.577-5.238-1.254-8.607 1.728-9.717 5.166-1.346 4.17.03 10.024 3.636 12.103 2.988 1.723 7.427.27 9.466-3.417l2.266 1.412-1.216 13.74h-14.8v-3.248h11.993l.19-5.724c-2.582 1.846-6.55 1.827-9.13.531-4.886-2.374-7.157-7.772-6.208-14.134 1.317-6.327 4.22-9.913 10.768-10.425 7.283-.067 9.854 5.034 9.824 8.542zm0 0" style="opacity:1;fill:#c8102e;fill-opacity:1"/></g><g transform="translate(-327.053 149.055)"><rect width="1659.913" height="794.398" x="-356.473" y="-1029.682" rx="144.482" ry="124.682" style="opacity:1;vector-effect:none;fill:#006614;fill-opacity:1;stroke:none;stroke-width:1.74801;stroke-linecap:butt;stroke-linejoin:miter;stroke-miterlimit:4;stroke-dasharray:none;stroke-dashoffset:0;stroke-opacity:1"/><text xml:space="preserve" x="472.194" y="-935.813" style="font-style:normal;font-variant:normal;font-weight:400;font-stretch:normal;font-size:42.6667px;line-height:125%;font-family:Carlito;-inkscape-font-specification:&quot;Carlito, Normal&quot;;text-align:center;letter-spacing:0;word-spacing:0;writing-mode:lr-tb;text-anchor:middle;fill:#fff;fill-opacity:1;stroke:none;stroke-width:1.06667px;stroke-linecap:butt;stroke-linejoin:miter;stroke-opacity:1"><tspan x="472.194" y="-935.813" style="font-style:normal;font-variant:normal;font-weight:400;font-stretch:normal;font-size:48px;line-height:125%;font-family:Carlito;-inkscape-font-specification:&quot;Carlito, Normal&quot;;text-align:center;writing-mode:lr-tb;text-anchor:middle;fill:#fff;fill-opacity:1;stroke-width:1.06667px">Single Playing Card from:</tspan><tspan x="472.194" y="-875.813" style="font-style:normal;font-variant:normal;font-weight:400;font-stretch:normal;font-size:48px;line-height:125%;font-family:Carlito;-inkscape-font-specification:&quot;Carlito, Normal&quot;;text-align:center;writing-mode:lr-tb;text-anchor:middle;fill:#fff;fill-opacity:1;stroke-width:1.06667px">Standard Edition - Color Set - Bordered </tspan><tspan x="472.194" y="-762.48" style="font-style:normal;font-variant:normal;font-weight:400;font-stretch:normal;font-size:48px;line-height:125%;font-family:Carlito;-inkscape-font-specification:&quot;Carlito, Normal&quot;;text-align:center;writing-mode:lr-tb;text-anchor:middle;fill:#faa;fill-opacity:1;stroke-width:1.06667px">Copyright 2011, 2020 - Chris Aguilar - conjurenation@gmail.com</tspan><tspan x="472.194" y="-649.147" style="font-style:normal;font-variant:normal;font-weight:400;font-stretch:normal;font-size:48px;line-height:125%;font-family:Carlito;-inkscape-font-specification:&quot;Carlito, Normal&quot;;text-align:center;writing-mode:lr-tb;text-anchor:middle;fill:#fff;fill-opacity:1;stroke-width:1.06667px">https://totalnonsense.com/open-source-vector-playing-cards/</tspan><tspan x="472.194" y="-535.813" style="font-style:normal;font-variant:normal;font-weight:400;font-stretch:normal;font-size:48px;line-height:125%;font-family:Carlito;-inkscape-font-specification:&quot;Carlito, Normal&quot;;text-align:center;writing-mode:lr-tb;text-anchor:middle;fill:#faa;fill-opacity:1;stroke-width:1.06667px">Licensed under:</tspan><tspan x="472.194" y="-475.813" style="font-style:normal;font-variant:normal;font-weight:400;font-stretch:normal;font-size:48px;line-height:125%;font-family:Carlito;-inkscape-font-specification:&quot;Carlito, Normal&quot;;text-align:center;writing-mode:lr-tb;text-anchor:middle;fill:#faa;fill-opacity:1;stroke-width:1.06667px">LGPL 3.0</tspan><tspan x="472.194" y="-415.813" style="font-style:normal;font-variant:normal;font-weight:400;font-stretch:normal;font-size:48px;line-height:125%;font-family:Carlito;-inkscape-font-specification:&quot;Carlito, Normal&quot;;text-align:center;writing-mode:lr-tb;text-anchor:middle;fill:#faa;fill-opacity:1;stroke-width:1.06667px">https://www.gnu.org/licenses/lgpl-3.0.html</tspan><tspan x="472.194" y="-302.48" style="font-style:normal;font-variant:normal;font-weight:400;font-stretch:normal;font-size:48px;line-height:125%;font-family:Carlito;-inkscape-font-specification:&quot;Carlito, Normal&quot;;text-align:center;writing-mode:lr-tb;text-anchor:middle;fill:#fff;fill-opacity:1;stroke-width:1.06667px">Each Card Measures (63mm x 88mm)</tspan></text></g></svg>