<svg xmlns="http://www.w3.org/2000/svg" width="261.12" height="355.2"><g transform="matrix(1.16974 0 0 1.13915 -2087.011 34.681)"><rect width="223.228" height="311.811" x="1784.161" y="-30.445" rx="10.678" ry="10.664" style="display:inline;fill:#fff;fill-opacity:1;stroke:none;stroke-width:1.00057;stroke-miterlimit:4;stroke-dasharray:none;stroke-opacity:1"/><path d="M1801.378 39.528c-2.16-3.568-4.434-7.037-7.275-10 2.84-2.962 5.114-6.43 7.275-10 2.16 3.57 4.434 7.038 7.275 10-2.84 2.963-5.114 6.432-7.275 10zM1947.541 50.25c-5.186-8.565-10.642-16.89-17.46-24 6.818-7.11 12.274-15.435 17.46-24 5.187 8.565 10.643 16.89 17.461 24-6.818 7.11-12.274 15.435-17.46 24zM1990.172 231.393c-2.16-3.569-4.434-7.037-7.275-10 2.841-2.963 5.115-6.431 7.275-10 2.161 3.569 4.435 7.037 7.276 10-2.841 2.963-5.115 6.431-7.276 10zM1844.008 50.25c-5.186-8.565-10.642-16.89-17.46-24 6.818-7.11 12.274-15.435 17.46-24 5.187 8.565 10.643 16.89 17.461 24-6.818 7.11-12.274 15.435-17.46 24zM1844.008 149.428c-5.186-8.565-10.642-16.889-17.46-24 6.818-7.11 12.274-15.435 17.46-24 5.187 8.565 10.643 16.89 17.461 24-6.818 7.111-12.274 15.435-17.46 24zM1947.541 149.444c-5.186-8.565-10.642-16.89-17.46-24 6.818-7.111 12.274-15.435 17.46-24 5.187 8.565 10.643 16.889 17.461 24-6.818 7.11-12.274 15.435-17.46 24zM1844.008 248.676c-5.186-8.564-10.642-16.889-17.46-24 6.818-7.11 12.274-15.435 17.46-24 5.187 8.565 10.643 16.89 17.461 24-6.818 7.111-12.274 15.436-17.46 24zM1947.541 248.683c-5.186-8.565-10.642-16.889-17.46-24 6.818-7.11 12.274-15.435 17.46-24 5.187 8.565 10.643 16.89 17.461 24-6.818 7.111-12.274 15.435-17.46 24z" style="display:inline;opacity:1;fill:#c8102e;fill-opacity:1"/><path d="M1791.686 6.24c-.407-2.777-.396-9.957-.064-12.081 1.024-6.507 3.51-9.485 7.672-10.457 4.044-.947 9.724.108 10.97 5.546l-3.38.066c-1.828-3.677-6.454-2.695-9.06-1.095-2.08 1.274-3.02 6.595-2.617 6.922 0 0 3.932-2.912 7.032-2.697 6.624.69 9.356 6.435 9.124 11.859-.21 6.525-2.28 11.743-9.3 12.09-6.676-.258-9.734-3.897-10.377-10.152zm16.463-1.723c.036-4.527-2.019-7.92-5.91-8.292-3.888-.375-7.811 3.42-7.54 8.035.271 4.634 2.065 8.533 6.78 8.512 5.073-.02 6.645-5.033 6.67-8.255zM1999.862 244.68c.406 2.778.396 9.958.064 12.082-1.025 6.507-3.51 9.485-7.673 10.457-4.043.946-9.724-.108-10.97-5.546l3.38-.065c1.829 3.677 6.455 2.695 9.06 1.094 2.08-1.274 3.02-6.594 2.617-6.922 0 0-3.931 2.913-7.031 2.698-6.624-.69-9.356-6.435-9.125-11.859.211-6.525 2.28-11.743 9.301-12.09 6.675.258 9.734 3.897 10.377 10.152zm-16.463 1.724c-.036 4.527 2.018 7.92 5.91 8.292 3.888.374 7.81-3.42 7.54-8.035-.272-4.635-2.065-8.533-6.781-8.512-5.072.02-6.645 5.033-6.67 8.255zm0 0" style="opacity:1;fill:#c8102e;fill-opacity:1"/></g><g transform="translate(-342.045 114.074)"><rect width="1659.913" height="794.398" x="-356.473" y="-1029.682" rx="144.482" ry="124.682" style="opacity:1;vector-effect:none;fill:#006614;fill-opacity:1;stroke:none;stroke-width:1.74801;stroke-linecap:butt;stroke-linejoin:miter;stroke-miterlimit:4;stroke-dasharray:none;stroke-dashoffset:0;stroke-opacity:1"/><text xml:space="preserve" x="472.194" y="-935.813" style="font-style:normal;font-variant:normal;font-weight:400;font-stretch:normal;font-size:42.6667px;line-height:125%;font-family:Carlito;-inkscape-font-specification:&quot;Carlito, Normal&quot;;text-align:center;letter-spacing:0;word-spacing:0;writing-mode:lr-tb;text-anchor:middle;fill:#fff;fill-opacity:1;stroke:none;stroke-width:1.06667px;stroke-linecap:butt;stroke-linejoin:miter;stroke-opacity:1"><tspan x="472.194" y="-935.813" style="font-style:normal;font-variant:normal;font-weight:400;font-stretch:normal;font-size:48px;line-height:125%;font-family:Carlito;-inkscape-font-specification:&quot;Carlito, Normal&quot;;text-align:center;writing-mode:lr-tb;text-anchor:middle;fill:#fff;fill-opacity:1;stroke-width:1.06667px">Single Playing Card from:</tspan><tspan x="472.194" y="-875.813" style="font-style:normal;font-variant:normal;font-weight:400;font-stretch:normal;font-size:48px;line-height:125%;font-family:Carlito;-inkscape-font-specification:&quot;Carlito, Normal&quot;;text-align:center;writing-mode:lr-tb;text-anchor:middle;fill:#fff;fill-opacity:1;stroke-width:1.06667px">Standard Edition - Color Set - Bordered </tspan><tspan x="472.194" y="-762.48" style="font-style:normal;font-variant:normal;font-weight:400;font-stretch:normal;font-size:48px;line-height:125%;font-family:Carlito;-inkscape-font-specification:&quot;Carlito, Normal&quot;;text-align:center;writing-mode:lr-tb;text-anchor:middle;fill:#faa;fill-opacity:1;stroke-width:1.06667px">Copyright 2011, 2020 - Chris Aguilar - conjurenation@gmail.com</tspan><tspan x="472.194" y="-649.147" style="font-style:normal;font-variant:normal;font-weight:400;font-stretch:normal;font-size:48px;line-height:125%;font-family:Carlito;-inkscape-font-specification:&quot;Carlito, Normal&quot;;text-align:center;writing-mode:lr-tb;text-anchor:middle;fill:#fff;fill-opacity:1;stroke-width:1.06667px">https://totalnonsense.com/open-source-vector-playing-cards/</tspan><tspan x="472.194" y="-535.813" style="font-style:normal;font-variant:normal;font-weight:400;font-stretch:normal;font-size:48px;line-height:125%;font-family:Carlito;-inkscape-font-specification:&quot;Carlito, Normal&quot;;text-align:center;writing-mode:lr-tb;text-anchor:middle;fill:#faa;fill-opacity:1;stroke-width:1.06667px">Licensed under:</tspan><tspan x="472.194" y="-475.813" style="font-style:normal;font-variant:normal;font-weight:400;font-stretch:normal;font-size:48px;line-height:125%;font-family:Carlito;-inkscape-font-specification:&quot;Carlito, Normal&quot;;text-align:center;writing-mode:lr-tb;text-anchor:middle;fill:#faa;fill-opacity:1;stroke-width:1.06667px">LGPL 3.0</tspan><tspan x="472.194" y="-415.813" style="font-style:normal;font-variant:normal;font-weight:400;font-stretch:normal;font-size:48px;line-height:125%;font-family:Carlito;-inkscape-font-specification:&quot;Carlito, Normal&quot;;text-align:center;writing-mode:lr-tb;text-anchor:middle;fill:#faa;fill-opacity:1;stroke-width:1.06667px">https://www.gnu.org/licenses/lgpl-3.0.html</tspan><tspan x="472.194" y="-302.48" style="font-style:normal;font-variant:normal;font-weight:400;font-stretch:normal;font-size:48px;line-height:125%;font-family:Carlito;-inkscape-font-specification:&quot;Carlito, Normal&quot;;text-align:center;writing-mode:lr-tb;text-anchor:middle;fill:#fff;fill-opacity:1;stroke-width:1.06667px">Each Card Measures (63mm x 88mm)</tspan></text></g></svg>