<svg xmlns="http://www.w3.org/2000/svg" width="261.12" height="355.2"><g style="display:inline"><g style="display:inline;opacity:1"><rect width="223.228" height="311.811" x="260.433" y="370.276" rx="10.678" ry="10.664" style="display:inline;fill:#fff;fill-opacity:1;stroke:none;stroke-width:1.00057;stroke-miterlimit:4;stroke-dasharray:none;stroke-opacity:1" transform="matrix(1.16974 0 0 1.13915 -304.64 -421.8)"/></g><path d="M-95.397-140.121s-2.225-3.19-5.226-6.94c-2.007-2.51-3.612-5.228-3.762-7.568-.17-2.674 1.45-5.357 4.383-5.487 2.93-.13 4.12 2.062 4.605 3.869.485-1.807 1.674-3.999 4.606-3.869 2.933.13 4.553 2.813 4.382 5.487-.15 2.34-1.754 5.058-3.762 7.568-3.001 3.75-5.226 6.94-5.226 6.94zM93.398 31.743s-2.225 3.19-5.226 6.94c-2.008 2.51-3.613 5.228-3.762 7.568-.171 2.674 1.449 5.357 4.382 5.487 2.931.13 4.121-2.062 4.606-3.869.484 1.807 1.674 3.999 4.605 3.869 2.933-.13 4.553-2.813 4.382-5.487-.149-2.34-1.754-5.058-3.762-7.567-3-3.75-5.225-6.94-5.225-6.94zM-52.766-129.4s-4.667-7.655-10.961-16.656c-4.211-6.023-7.578-12.545-7.89-18.163-.36-6.417 3.038-12.855 9.19-13.167 6.149-.312 8.645 4.948 9.66 9.284 1.017-4.336 3.512-9.596 9.66-9.284 6.153.312 9.551 6.75 9.192 13.167-.313 5.618-3.68 12.14-7.89 18.163-6.295 9-10.961 16.656-10.961 16.656zM50.766-30.189s-4.666-7.655-10.96-16.656c-4.212-6.023-7.578-12.546-7.891-18.163-.36-6.418 3.04-12.856 9.191-13.168 6.149-.312 8.644 4.948 9.66 9.285 1.016-4.337 3.512-9.597 9.66-9.285 6.153.312 9.551 6.75 9.192 13.168-.313 5.617-3.68 12.14-7.89 18.163-6.295 9-10.962 16.656-10.962 16.656zM50.766-129.4s-4.666-7.655-10.96-16.656c-4.212-6.023-7.578-12.545-7.891-18.163-.36-6.417 3.04-12.855 9.191-13.167 6.149-.312 8.644 4.948 9.66 9.284 1.016-4.336 3.512-9.596 9.66-9.284 6.153.312 9.551 6.75 9.192 13.167-.313 5.618-3.68 12.14-7.89 18.163-6.295 9-10.962 16.656-10.962 16.656zM-52.766-30.189s-4.667-7.655-10.961-16.656c-4.211-6.023-7.578-12.546-7.89-18.163-.36-6.418 3.038-12.856 9.19-13.168 6.149-.312 8.645 4.948 9.66 9.285 1.017-4.337 3.512-9.597 9.66-9.285 6.153.312 9.551 6.75 9.192 13.168-.313 5.617-3.68 12.14-7.89 18.163-6.295 9-10.961 16.656-10.961 16.656zM50.766 21.022s-4.666 7.655-10.96 16.656c-4.212 6.023-7.578 12.545-7.891 18.163-.36 6.417 3.04 12.855 9.191 13.167 6.149.312 8.644-4.948 9.66-9.284 1.016 4.336 3.512 9.596 9.66 9.284 6.153-.312 9.551-6.75 9.192-13.167-.313-5.618-3.68-12.14-7.89-18.163-6.295-9-10.962-16.656-10.962-16.656z" style="display:inline;opacity:1;fill:#c8102e;fill-opacity:1" transform="matrix(1.16974 0 0 1.13915 131.733 239.334)"/><path d="M-52.766 21.022s-4.667 7.655-10.961 16.656c-4.211 6.023-7.578 12.545-7.89 18.163-.36 6.417 3.038 12.855 9.19 13.167 6.149.312 8.645-4.948 9.66-9.284 1.017 4.336 3.512 9.596 9.66 9.284 6.153-.312 9.551-6.75 9.192-13.167-.313-5.618-3.68-12.14-7.89-18.163-6.295-9-10.961-16.656-10.961-16.656z" style="display:inline;opacity:1;fill:#c8102e;fill-opacity:1;stroke:none;stroke-opacity:1" transform="matrix(1.16974 0 0 1.13915 131.733 239.334)"/><path d="M1876.141-1027.314c-.406-2.778-.396-9.958-.064-12.082 1.025-6.507 3.51-9.485 7.673-10.456 4.044-.947 9.724.107 10.97 5.545l-3.38.065c-1.828-3.677-6.454-2.695-9.06-1.094-2.08 1.274-3.02 6.594-2.617 6.922 0 0 3.932-2.913 7.032-2.698 6.623.69 9.356 6.435 9.124 11.859-.21 6.525-2.28 11.743-9.3 12.09-6.676-.258-9.734-3.897-10.377-10.152zm16.464-1.724c.036-4.527-2.019-7.92-5.91-8.292-3.889-.374-7.811 3.42-7.54 8.035.271 4.635 2.065 8.533 6.78 8.512 5.073-.02 6.645-5.032 6.67-8.255zm0 0" style="opacity:1;fill:#c8102e;fill-opacity:1;stroke-width:1;stroke-miterlimit:4;stroke-dasharray:none" transform="matrix(1.16974 0 0 1.13915 -2185.799 1212.062)"/><path d="M2084.318-788.874c.406 2.777.396 9.957.064 12.081-1.025 6.507-3.51 9.485-7.673 10.456-4.043.947-9.724-.107-10.97-5.545l3.38-.065c1.829 3.677 6.455 2.695 9.06 1.094 2.08-1.274 3.02-6.594 2.617-6.922 0 0-3.931 2.913-7.031 2.698-6.624-.69-9.356-6.435-9.125-11.859.211-6.525 2.28-11.743 9.3-12.09 6.676.258 9.735 3.897 10.378 10.152zm-16.463 1.723c-.036 4.527 2.018 7.92 5.91 8.292 3.888.374 7.81-3.42 7.54-8.035-.272-4.635-2.065-8.533-6.781-8.512-5.072.02-6.645 5.032-6.67 8.255zm0 0" style="opacity:1;fill:#c8102e;fill-opacity:1" transform="matrix(1.16974 0 0 1.13915 -2185.799 1212.062)"/></g><g transform="translate(-341.837 156.147)"><rect width="1659.913" height="794.398" x="-356.473" y="-1029.682" rx="144.482" ry="124.682" style="opacity:1;vector-effect:none;fill:#006614;fill-opacity:1;stroke:none;stroke-width:1.74801;stroke-linecap:butt;stroke-linejoin:miter;stroke-miterlimit:4;stroke-dasharray:none;stroke-dashoffset:0;stroke-opacity:1"/><text xml:space="preserve" x="472.194" y="-935.813" style="font-style:normal;font-variant:normal;font-weight:400;font-stretch:normal;font-size:42.6667px;line-height:125%;font-family:Carlito;-inkscape-font-specification:&quot;Carlito, Normal&quot;;text-align:center;letter-spacing:0;word-spacing:0;writing-mode:lr-tb;text-anchor:middle;fill:#fff;fill-opacity:1;stroke:none;stroke-width:1.06667px;stroke-linecap:butt;stroke-linejoin:miter;stroke-opacity:1"><tspan x="472.194" y="-935.813" style="font-style:normal;font-variant:normal;font-weight:400;font-stretch:normal;font-size:48px;line-height:125%;font-family:Carlito;-inkscape-font-specification:&quot;Carlito, Normal&quot;;text-align:center;writing-mode:lr-tb;text-anchor:middle;fill:#fff;fill-opacity:1;stroke-width:1.06667px">Single Playing Card from:</tspan><tspan x="472.194" y="-875.813" style="font-style:normal;font-variant:normal;font-weight:400;font-stretch:normal;font-size:48px;line-height:125%;font-family:Carlito;-inkscape-font-specification:&quot;Carlito, Normal&quot;;text-align:center;writing-mode:lr-tb;text-anchor:middle;fill:#fff;fill-opacity:1;stroke-width:1.06667px">Standard Edition - Color Set - Bordered </tspan><tspan x="472.194" y="-762.48" style="font-style:normal;font-variant:normal;font-weight:400;font-stretch:normal;font-size:48px;line-height:125%;font-family:Carlito;-inkscape-font-specification:&quot;Carlito, Normal&quot;;text-align:center;writing-mode:lr-tb;text-anchor:middle;fill:#faa;fill-opacity:1;stroke-width:1.06667px">Copyright 2011, 2020 - Chris Aguilar - conjurenation@gmail.com</tspan><tspan x="472.194" y="-649.147" style="font-style:normal;font-variant:normal;font-weight:400;font-stretch:normal;font-size:48px;line-height:125%;font-family:Carlito;-inkscape-font-specification:&quot;Carlito, Normal&quot;;text-align:center;writing-mode:lr-tb;text-anchor:middle;fill:#fff;fill-opacity:1;stroke-width:1.06667px">https://totalnonsense.com/open-source-vector-playing-cards/</tspan><tspan x="472.194" y="-535.813" style="font-style:normal;font-variant:normal;font-weight:400;font-stretch:normal;font-size:48px;line-height:125%;font-family:Carlito;-inkscape-font-specification:&quot;Carlito, Normal&quot;;text-align:center;writing-mode:lr-tb;text-anchor:middle;fill:#faa;fill-opacity:1;stroke-width:1.06667px">Licensed under:</tspan><tspan x="472.194" y="-475.813" style="font-style:normal;font-variant:normal;font-weight:400;font-stretch:normal;font-size:48px;line-height:125%;font-family:Carlito;-inkscape-font-specification:&quot;Carlito, Normal&quot;;text-align:center;writing-mode:lr-tb;text-anchor:middle;fill:#faa;fill-opacity:1;stroke-width:1.06667px">LGPL 3.0</tspan><tspan x="472.194" y="-415.813" style="font-style:normal;font-variant:normal;font-weight:400;font-stretch:normal;font-size:48px;line-height:125%;font-family:Carlito;-inkscape-font-specification:&quot;Carlito, Normal&quot;;text-align:center;writing-mode:lr-tb;text-anchor:middle;fill:#faa;fill-opacity:1;stroke-width:1.06667px">https://www.gnu.org/licenses/lgpl-3.0.html</tspan><tspan x="472.194" y="-302.48" style="font-style:normal;font-variant:normal;font-weight:400;font-stretch:normal;font-size:48px;line-height:125%;font-family:Carlito;-inkscape-font-specification:&quot;Carlito, Normal&quot;;text-align:center;writing-mode:lr-tb;text-anchor:middle;fill:#fff;fill-opacity:1;stroke-width:1.06667px">Each Card Measures (63mm x 88mm)</tspan></text></g></svg>