<svg xmlns="http://www.w3.org/2000/svg" width="261.12" height="355.2"><g transform="matrix(1.16974 0 0 1.13915 -2396.087 34.681)"><rect width="223.228" height="311.811" x="2048.386" y="-30.445" rx="10.678" ry="10.664" style="display:inline;fill:#fff;fill-opacity:1;stroke:none;stroke-width:1.00057;stroke-miterlimit:4;stroke-dasharray:none;stroke-opacity:1"/><path d="M2065.603 39.528c-2.16-3.568-4.434-7.037-7.275-10 2.84-2.962 5.114-6.43 7.275-10 2.161 3.57 4.434 7.038 7.275 10-2.84 2.963-5.114 6.432-7.275 10zM2211.766 50.25c-5.186-8.565-10.642-16.89-17.46-24 6.818-7.11 12.274-15.435 17.46-24 5.187 8.565 10.643 16.89 17.461 24-6.818 7.11-12.274 15.435-17.46 24zM2254.398 231.393c-2.161-3.569-4.435-7.037-7.276-10 2.841-2.963 5.115-6.431 7.276-10 2.16 3.569 4.434 7.037 7.275 10-2.841 2.963-5.114 6.431-7.275 10zM2108.234 50.25c-5.187-8.565-10.643-16.89-17.461-24 6.818-7.11 12.274-15.435 17.46-24 5.187 8.565 10.643 16.89 17.461 24-6.818 7.11-12.274 15.435-17.46 24zM2160 99.84c-5.186-8.566-10.643-16.89-17.461-24 6.819-7.112 12.275-15.436 17.461-24 5.186 8.564 10.642 16.888 17.46 24-6.818 7.11-12.274 15.434-17.46 24zM2108.234 149.428c-5.187-8.565-10.643-16.889-17.461-24 6.818-7.11 12.274-15.435 17.46-24 5.187 8.565 10.643 16.89 17.461 24-6.818 7.111-12.274 15.435-17.46 24zM2211.766 149.444c-5.186-8.565-10.642-16.89-17.46-24 6.818-7.111 12.274-15.435 17.46-24 5.187 8.565 10.643 16.889 17.461 24-6.818 7.11-12.274 15.435-17.46 24zM2108.234 248.676c-5.187-8.564-10.643-16.889-17.461-24 6.818-7.11 12.274-15.435 17.46-24 5.187 8.565 10.643 16.89 17.461 24-6.818 7.111-12.274 15.436-17.46 24zM2211.766 248.683c-5.186-8.565-10.642-16.889-17.46-24 6.818-7.11 12.274-15.435 17.46-24 5.187 8.565 10.643 16.89 17.461 24-6.818 7.111-12.274 15.435-17.46 24z" style="display:inline;opacity:1;fill:#c8102e;fill-opacity:1"/><path d="M2060.529 16.39c2.17-11.474 4.48-20.088 10.546-29.436h-12.33v4.024h-3.273v-7.585h18.035l2.224 3.562c-6.443 7.032-12.339 29.767-11.295 29.434zM2259.469 234.532c-2.17 11.473-4.48 20.087-10.547 29.435h12.33v-4.024h3.273v7.586h-18.034l-2.224-3.562c6.442-7.033 12.339-29.767 11.295-29.435zm0 0" style="opacity:1;fill:#c8102e;fill-opacity:1"/></g><g transform="translate(-334.77 156.147)"><rect width="1659.913" height="794.398" x="-356.473" y="-1029.682" rx="144.482" ry="124.682" style="opacity:1;vector-effect:none;fill:#006614;fill-opacity:1;stroke:none;stroke-width:1.74801;stroke-linecap:butt;stroke-linejoin:miter;stroke-miterlimit:4;stroke-dasharray:none;stroke-dashoffset:0;stroke-opacity:1"/><text xml:space="preserve" x="472.194" y="-935.813" style="font-style:normal;font-variant:normal;font-weight:400;font-stretch:normal;font-size:42.6667px;line-height:125%;font-family:Carlito;-inkscape-font-specification:&quot;Carlito, Normal&quot;;text-align:center;letter-spacing:0;word-spacing:0;writing-mode:lr-tb;text-anchor:middle;fill:#fff;fill-opacity:1;stroke:none;stroke-width:1.06667px;stroke-linecap:butt;stroke-linejoin:miter;stroke-opacity:1"><tspan x="472.194" y="-935.813" style="font-style:normal;font-variant:normal;font-weight:400;font-stretch:normal;font-size:48px;line-height:125%;font-family:Carlito;-inkscape-font-specification:&quot;Carlito, Normal&quot;;text-align:center;writing-mode:lr-tb;text-anchor:middle;fill:#fff;fill-opacity:1;stroke-width:1.06667px">Single Playing Card from:</tspan><tspan x="472.194" y="-875.813" style="font-style:normal;font-variant:normal;font-weight:400;font-stretch:normal;font-size:48px;line-height:125%;font-family:Carlito;-inkscape-font-specification:&quot;Carlito, Normal&quot;;text-align:center;writing-mode:lr-tb;text-anchor:middle;fill:#fff;fill-opacity:1;stroke-width:1.06667px">Standard Edition - Color Set - Bordered </tspan><tspan x="472.194" y="-762.48" style="font-style:normal;font-variant:normal;font-weight:400;font-stretch:normal;font-size:48px;line-height:125%;font-family:Carlito;-inkscape-font-specification:&quot;Carlito, Normal&quot;;text-align:center;writing-mode:lr-tb;text-anchor:middle;fill:#faa;fill-opacity:1;stroke-width:1.06667px">Copyright 2011, 2020 - Chris Aguilar - conjurenation@gmail.com</tspan><tspan x="472.194" y="-649.147" style="font-style:normal;font-variant:normal;font-weight:400;font-stretch:normal;font-size:48px;line-height:125%;font-family:Carlito;-inkscape-font-specification:&quot;Carlito, Normal&quot;;text-align:center;writing-mode:lr-tb;text-anchor:middle;fill:#fff;fill-opacity:1;stroke-width:1.06667px">https://totalnonsense.com/open-source-vector-playing-cards/</tspan><tspan x="472.194" y="-535.813" style="font-style:normal;font-variant:normal;font-weight:400;font-stretch:normal;font-size:48px;line-height:125%;font-family:Carlito;-inkscape-font-specification:&quot;Carlito, Normal&quot;;text-align:center;writing-mode:lr-tb;text-anchor:middle;fill:#faa;fill-opacity:1;stroke-width:1.06667px">Licensed under:</tspan><tspan x="472.194" y="-475.813" style="font-style:normal;font-variant:normal;font-weight:400;font-stretch:normal;font-size:48px;line-height:125%;font-family:Carlito;-inkscape-font-specification:&quot;Carlito, Normal&quot;;text-align:center;writing-mode:lr-tb;text-anchor:middle;fill:#faa;fill-opacity:1;stroke-width:1.06667px">LGPL 3.0</tspan><tspan x="472.194" y="-415.813" style="font-style:normal;font-variant:normal;font-weight:400;font-stretch:normal;font-size:48px;line-height:125%;font-family:Carlito;-inkscape-font-specification:&quot;Carlito, Normal&quot;;text-align:center;writing-mode:lr-tb;text-anchor:middle;fill:#faa;fill-opacity:1;stroke-width:1.06667px">https://www.gnu.org/licenses/lgpl-3.0.html</tspan><tspan x="472.194" y="-302.48" style="font-style:normal;font-variant:normal;font-weight:400;font-stretch:normal;font-size:48px;line-height:125%;font-family:Carlito;-inkscape-font-specification:&quot;Carlito, Normal&quot;;text-align:center;writing-mode:lr-tb;text-anchor:middle;fill:#fff;fill-opacity:1;stroke-width:1.06667px">Each Card Measures (63mm x 88mm)</tspan></text></g></svg>