<svg xmlns="http://www.w3.org/2000/svg" width="261.12" height="355.2"><g style="display:inline"><g style="display:inline;opacity:1"><rect width="223.228" height="311.811" x="260.433" y="370.276" rx="10.678" ry="10.664" style="display:inline;fill:#fff;fill-opacity:1;stroke:#000000;stroke-width:1.00057;stroke-miterlimit:4;stroke-dasharray:none;stroke-opacity:1" transform="matrix(1.16974 0 0 1.13915 -304.64 -421.8)"/></g><path d="M-95.397-140.121s-2.225-3.19-5.226-6.94c-2.007-2.51-3.612-5.228-3.762-7.568-.17-2.674 1.45-5.357 4.383-5.487 2.93-.13 4.12 2.062 4.605 3.869.485-1.807 1.674-3.999 4.606-3.869 2.933.13 4.553 2.813 4.382 5.487-.15 2.34-1.754 5.058-3.762 7.568-3.001 3.75-5.226 6.94-5.226 6.94zM93.398 31.743c0 .003-2.225 3.19-5.226 6.94-2.008 2.51-3.613 5.228-3.762 7.568-.171 2.674 1.449 5.357 4.382 5.487 2.931.13 4.121-2.062 4.606-3.869.484 1.807 1.674 3.999 4.605 3.869 2.933-.13 4.553-2.813 4.382-5.487-.149-2.34-1.754-5.058-3.762-7.567-3-3.75-5.223-6.938-5.225-6.94z" style="display:inline;opacity:1;fill:#c8102e;fill-opacity:1" transform="matrix(1.16974 0 0 1.13915 131.721 239.334)"/><path d="M2551.923-933.7s-4.666-7.655-10.96-16.656c-4.212-6.023-7.579-12.545-7.892-18.163-.359-6.418 3.04-12.856 9.192-13.168 6.148-.311 8.644 4.948 9.66 9.285 1.016-4.337 3.512-9.596 9.66-9.285 6.152.312 9.55 6.75 9.192 13.168-.313 5.618-3.68 12.14-7.891 18.163-6.295 9-10.961 16.656-10.961 16.656z" style="display:inline;opacity:1;fill:#c8102e;fill-opacity:1" transform="matrix(1.16974 0 0 1.13915 -2854.541 1212.062)"/><path d="M-52.766-129.4s-4.667-7.655-10.961-16.656c-4.211-6.023-7.578-12.545-7.89-18.163-.36-6.417 3.038-12.855 9.19-13.167 6.149-.312 8.645 4.948 9.66 9.284 1.017-4.336 3.512-9.596 9.66-9.284 6.153.312 9.551 6.75 9.192 13.167-.313 5.618-3.68 12.14-7.89 18.163-6.295 9-10.961 16.656-10.961 16.656zM50.766-30.189s-4.666-7.655-10.96-16.656c-4.212-6.023-7.578-12.546-7.891-18.163-.36-6.418 3.04-12.856 9.191-13.168 6.149-.312 8.644 4.948 9.66 9.285 1.016-4.337 3.512-9.597 9.66-9.285 6.153.312 9.551 6.75 9.192 13.168-.313 5.617-3.68 12.14-7.89 18.163-6.295 9-10.962 16.656-10.962 16.656zM50.766-129.4s-4.666-7.655-10.96-16.656c-4.212-6.023-7.578-12.545-7.891-18.163-.36-6.417 3.04-12.855 9.191-13.167 6.149-.312 8.644 4.948 9.66 9.284 1.016-4.336 3.512-9.596 9.66-9.284 6.153.312 9.551 6.75 9.192 13.167-.313 5.618-3.68 12.14-7.89 18.163-6.295 9-10.962 16.656-10.962 16.656zM-52.766-30.189s-4.667-7.655-10.961-16.656c-4.211-6.023-7.578-12.546-7.89-18.163-.36-6.418 3.038-12.856 9.19-13.168 6.149-.312 8.645 4.948 9.66 9.285 1.017-4.337 3.512-9.597 9.66-9.285 6.153.312 9.551 6.75 9.192 13.168-.313 5.617-3.68 12.14-7.89 18.163-6.295 9-10.961 16.656-10.961 16.656z" style="display:inline;opacity:1;fill:#c8102e;fill-opacity:1" transform="matrix(1.16974 0 0 1.13915 131.721 239.334)"/><path d="M2551.923-882.49s-4.666 7.656-10.96 16.657c-4.212 6.023-7.579 12.545-7.891 18.163-.36 6.418 3.039 12.856 9.19 13.168 6.15.311 8.645-4.948 9.661-9.285 1.016 4.337 3.512 9.597 9.66 9.285 6.152-.312 9.55-6.75 9.192-13.168-.313-5.618-3.68-12.14-7.89-18.163-6.296-9-10.962-16.656-10.962-16.656z" style="display:inline;opacity:1;fill:#c8102e;fill-opacity:1" transform="matrix(1.16974 0 0 1.13915 -2854.541 1212.062)"/><path d="M50.766 21.022s-4.666 7.655-10.96 16.656c-4.212 6.023-7.578 12.545-7.891 18.163-.36 6.417 3.04 12.855 9.191 13.167 6.149.312 8.644-4.948 9.66-9.284 1.016 4.336 3.512 9.596 9.66 9.284 6.153-.312 9.551-6.75 9.192-13.167-.313-5.618-3.68-12.14-7.89-18.163-6.295-9-10.962-16.656-10.962-16.656zM-52.766 21.022s-4.667 7.655-10.961 16.656c-4.211 6.023-7.578 12.545-7.89 18.163-.36 6.417 3.038 12.855 9.19 13.167 6.149.312 8.645-4.948 9.66-9.284 1.017 4.336 3.512 9.596 9.66 9.284 6.153-.312 9.551-6.75 9.192-13.167-.313-5.618-3.68-12.14-7.89-18.163-6.295-9-10.961-16.656-10.961-16.656z" style="display:inline;opacity:1;fill:#c8102e;fill-opacity:1;stroke:none;stroke-opacity:1" transform="matrix(1.16974 0 0 1.13915 131.721 239.334)"/><path d="M2446.805-1026.828c.157-4.43 1.759-6.092 4.913-8.41-2.516-1.815-3.577-4.49-3.361-6.768.518-5.514 4.776-8.27 9.423-8.153 4.65.124 8.652 3.81 8.965 7.817.271 3.483-.764 5.165-3.235 6.997 2.933 2.476 4.806 4.102 4.736 8.465-.069 4.364-3.78 9.556-10.25 9.714-6.47.159-11.352-5.232-11.19-9.662zm18.06.016c.277-4.011-3.27-6.717-7.272-6.756-3.897-.042-7.382 3.284-7.382 6.885 0 3.867 4.534 5.969 7.463 5.978 3.56.016 6.95-2.654 7.191-6.107zm-1.28-14.349c.075-3.374-3.039-5.796-6.253-5.699-2.858.088-5.88 2.267-5.886 5.09 0 3.535 3.44 5.3 6.379 5.368 2.666.06 5.7-2.206 5.76-4.759zm0 0" style="opacity:1;fill:#c8102e;fill-opacity:1;stroke-width:1;stroke-miterlimit:4;stroke-dasharray:none" transform="matrix(1.16974 0 0 1.13915 -2854.541 1212.062)"/><path d="M2635.6-789.36c.156 4.43 1.758 6.091 4.912 8.41-2.516 1.814-3.577 4.49-3.36 6.767.518 5.514 4.776 8.27 9.422 8.153 4.65-.123 8.653-3.81 8.965-7.817.271-3.483-.764-5.164-3.235-6.996 2.933-2.477 4.806-4.103 4.737-8.466-.07-4.364-3.781-9.556-10.25-9.714-6.47-.159-11.352 5.233-11.191 9.663zm18.06-.016c.276 4.01-3.27 6.716-7.272 6.755-3.897.042-7.383-3.284-7.383-6.885 0-3.867 4.535-5.969 7.464-5.978 3.56-.016 6.95 2.655 7.19 6.108zm-1.281 14.348c.076 3.374-3.038 5.796-6.252 5.699-2.858-.088-5.881-2.267-5.886-5.09 0-3.535 3.44-5.3 6.378-5.368 2.667-.06 5.7 2.207 5.76 4.759zm0 0" style="opacity:1;fill:#c8102e;fill-opacity:1" transform="matrix(1.16974 0 0 1.13915 -2854.541 1212.062)"/></g><g transform="translate(-332.05 174.04)"><rect width="1659.913" height="794.398" x="-356.473" y="-1029.682" rx="144.482" ry="124.682" style="opacity:1;vector-effect:none;fill:#006614;fill-opacity:1;stroke:none;stroke-width:1.74801;stroke-linecap:butt;stroke-linejoin:miter;stroke-miterlimit:4;stroke-dasharray:none;stroke-dashoffset:0;stroke-opacity:1"/><text xml:space="preserve" x="472.194" y="-935.813" style="font-style:normal;font-variant:normal;font-weight:400;font-stretch:normal;font-size:42.6667px;line-height:125%;font-family:Carlito;-inkscape-font-specification:&quot;Carlito, Normal&quot;;text-align:center;letter-spacing:0;word-spacing:0;writing-mode:lr-tb;text-anchor:middle;fill:#fff;fill-opacity:1;stroke:none;stroke-width:1.06667px;stroke-linecap:butt;stroke-linejoin:miter;stroke-opacity:1"><tspan x="472.194" y="-935.813" style="font-style:normal;font-variant:normal;font-weight:400;font-stretch:normal;font-size:48px;line-height:125%;font-family:Carlito;-inkscape-font-specification:&quot;Carlito, Normal&quot;;text-align:center;writing-mode:lr-tb;text-anchor:middle;fill:#fff;fill-opacity:1;stroke-width:1.06667px">Single Playing Card from:</tspan><tspan x="472.194" y="-875.813" style="font-style:normal;font-variant:normal;font-weight:400;font-stretch:normal;font-size:48px;line-height:125%;font-family:Carlito;-inkscape-font-specification:&quot;Carlito, Normal&quot;;text-align:center;writing-mode:lr-tb;text-anchor:middle;fill:#fff;fill-opacity:1;stroke-width:1.06667px">Standard Edition - Color Set - Bordered </tspan><tspan x="472.194" y="-762.48" style="font-style:normal;font-variant:normal;font-weight:400;font-stretch:normal;font-size:48px;line-height:125%;font-family:Carlito;-inkscape-font-specification:&quot;Carlito, Normal&quot;;text-align:center;writing-mode:lr-tb;text-anchor:middle;fill:#faa;fill-opacity:1;stroke-width:1.06667px">Copyright 2011, 2020 - Chris Aguilar - conjurenation@gmail.com</tspan><tspan x="472.194" y="-649.147" style="font-style:normal;font-variant:normal;font-weight:400;font-stretch:normal;font-size:48px;line-height:125%;font-family:Carlito;-inkscape-font-specification:&quot;Carlito, Normal&quot;;text-align:center;writing-mode:lr-tb;text-anchor:middle;fill:#fff;fill-opacity:1;stroke-width:1.06667px">https://totalnonsense.com/open-source-vector-playing-cards/</tspan><tspan x="472.194" y="-535.813" style="font-style:normal;font-variant:normal;font-weight:400;font-stretch:normal;font-size:48px;line-height:125%;font-family:Carlito;-inkscape-font-specification:&quot;Carlito, Normal&quot;;text-align:center;writing-mode:lr-tb;text-anchor:middle;fill:#faa;fill-opacity:1;stroke-width:1.06667px">Licensed under:</tspan><tspan x="472.194" y="-475.813" style="font-style:normal;font-variant:normal;font-weight:400;font-stretch:normal;font-size:48px;line-height:125%;font-family:Carlito;-inkscape-font-specification:&quot;Carlito, Normal&quot;;text-align:center;writing-mode:lr-tb;text-anchor:middle;fill:#faa;fill-opacity:1;stroke-width:1.06667px">LGPL 3.0</tspan><tspan x="472.194" y="-415.813" style="font-style:normal;font-variant:normal;font-weight:400;font-stretch:normal;font-size:48px;line-height:125%;font-family:Carlito;-inkscape-font-specification:&quot;Carlito, Normal&quot;;text-align:center;writing-mode:lr-tb;text-anchor:middle;fill:#faa;fill-opacity:1;stroke-width:1.06667px">https://www.gnu.org/licenses/lgpl-3.0.html</tspan><tspan x="472.194" y="-302.48" style="font-style:normal;font-variant:normal;font-weight:400;font-stretch:normal;font-size:48px;line-height:125%;font-family:Carlito;-inkscape-font-specification:&quot;Carlito, Normal&quot;;text-align:center;writing-mode:lr-tb;text-anchor:middle;fill:#fff;fill-opacity:1;stroke-width:1.06667px">Each Card Measures (63mm x 88mm)</tspan></text></g></svg>