<svg xmlns="http://www.w3.org/2000/svg" width="261.12" height="355.2"><g transform="matrix(1.16974 0 0 1.13915 -3014.238 34.681)"><rect width="223.228" height="311.811" x="2576.836" y="-30.445" rx="10.678" ry="10.664" style="display:inline;fill:#fff;fill-opacity:1;stroke:#000000;stroke-width:1.00057;stroke-miterlimit:4;stroke-dasharray:none;stroke-opacity:1"/><path d="M2594.053 39.528c-2.16-3.568-4.434-7.037-7.275-10 2.84-2.962 5.114-6.43 7.275-10 2.161 3.57 4.435 7.038 7.276 10-2.841 2.963-5.115 6.432-7.276 10zM2740.217 50.25c-5.187-8.565-10.643-16.89-17.461-24 6.818-7.11 12.274-15.435 17.46-24 5.187 8.565 10.643 16.89 17.462 24-6.819 7.11-12.275 15.435-17.461 24zM2782.848 231.393c-2.161-3.569-4.435-7.037-7.276-10 2.841-2.963 5.115-6.431 7.276-10 2.16 3.569 4.434 7.037 7.275 10-2.84 2.963-5.114 6.431-7.275 10zM2636.684 50.25c-5.186-8.565-10.643-16.89-17.461-24 6.818-7.11 12.275-15.435 17.46-24 5.187 8.565 10.643 16.89 17.462 24-6.819 7.11-12.275 15.435-17.461 24zM2740.217 116.397c-5.187-8.564-10.643-16.889-17.461-24 6.818-7.11 12.274-15.435 17.46-24 5.187 8.565 10.643 16.89 17.462 24-6.819 7.111-12.275 15.436-17.461 24zM2636.684 116.397c-5.186-8.564-10.643-16.889-17.461-24 6.818-7.11 12.275-15.435 17.46-24 5.187 8.565 10.643 16.89 17.462 24-6.819 7.111-12.275 15.436-17.461 24zM2688.45 149.46c-5.186-8.564-10.642-16.888-17.46-24 6.818-7.11 12.274-15.434 17.46-24 5.186 8.566 10.643 16.89 17.461 24-6.818 7.112-12.275 15.436-17.46 24zM2636.684 248.676c-5.186-8.564-10.643-16.889-17.461-24 6.818-7.11 12.275-15.435 17.46-24 5.187 8.565 10.643 16.89 17.462 24-6.819 7.111-12.275 15.436-17.461 24zM2740.217 248.683c-5.187-8.565-10.643-16.889-17.461-24 6.818-7.11 12.274-15.435 17.46-24 5.187 8.565 10.643 16.89 17.462 24-6.819 7.111-12.275 15.435-17.461 24zM2740.217 182.53c-5.187-8.565-10.643-16.89-17.461-24 6.818-7.111 12.274-15.436 17.46-24 5.187 8.564 10.643 16.889 17.462 24-6.819 7.11-12.275 15.435-17.461 24zM2636.684 182.497c-5.186-8.565-10.643-16.889-17.461-24 6.818-7.11 12.275-15.435 17.46-24 5.187 8.565 10.643 16.89 17.462 24-6.819 7.111-12.275 15.435-17.461 24z" style="display:inline;opacity:1;fill:#c8102e;fill-opacity:1"/><path d="m2584.834 10.031 3.018-.957c1.14 3.043 3.44 3.944 5.876 3.749 4.369-.348 5.82-5.232 6.147-9.55-1.702 1.806-4.26 2.723-6.439 2.63-6.966-.373-8.749-5.949-8.813-11.785-.19-4.92 1.843-8.485 5.333-10.121 1.848-.83 6.081-.83 7.94.153 4.269 2.252 5.851 6.142 5.565 15.431 0 7.642-1.623 16.542-9.814 16.735-4.73.655-8.326-3.027-8.814-6.285zm11.857-8.373c1.421-.9 2.22-1.744 2.859-3.008.521-1.038.703-1.58.552-3.728-.387-5.54-3.29-8.685-7.503-8.062-2.35.354-3.636 1.668-4.374 4.113-1.361 4.521.367 9.81 3.601 11.028 1.456.552 3.706.394 4.865-.343zM2792.065 240.89l-3.02.957c-1.14-3.043-3.44-3.944-5.875-3.749-4.369.349-5.82 5.233-6.147 9.55 1.703-1.806 4.26-2.722 6.439-2.63 6.966.374 8.75 5.95 8.813 11.785.19 4.92-1.843 8.485-5.333 10.122-1.848.829-6.08.829-7.94-.153-4.268-2.253-5.851-6.143-5.564-15.432 0-7.641 1.622-16.541 9.813-16.735 4.73-.655 8.326 3.027 8.814 6.285zm-11.858 8.374c-1.421.9-2.22 1.744-2.858 3.007-.522 1.039-.704 1.58-.553 3.728.387 5.54 3.29 8.685 7.503 8.062 2.35-.353 3.636-1.668 4.374-4.113 1.362-4.521-.366-9.81-3.601-11.027-1.456-.553-3.706-.395-4.865.343zm0 0" style="opacity:1;fill:#c8102e;fill-opacity:1"/></g><g transform="translate(-345.977 163.214)"><rect width="1659.913" height="794.398" x="-356.473" y="-1029.682" rx="144.482" ry="124.682" style="opacity:1;vector-effect:none;fill:#006614;fill-opacity:1;stroke:none;stroke-width:1.74801;stroke-linecap:butt;stroke-linejoin:miter;stroke-miterlimit:4;stroke-dasharray:none;stroke-dashoffset:0;stroke-opacity:1"/><text xml:space="preserve" x="472.194" y="-935.813" style="font-style:normal;font-variant:normal;font-weight:400;font-stretch:normal;font-size:42.6667px;line-height:125%;font-family:Carlito;-inkscape-font-specification:&quot;Carlito, Normal&quot;;text-align:center;letter-spacing:0;word-spacing:0;writing-mode:lr-tb;text-anchor:middle;fill:#fff;fill-opacity:1;stroke:none;stroke-width:1.06667px;stroke-linecap:butt;stroke-linejoin:miter;stroke-opacity:1"><tspan x="472.194" y="-935.813" style="font-style:normal;font-variant:normal;font-weight:400;font-stretch:normal;font-size:48px;line-height:125%;font-family:Carlito;-inkscape-font-specification:&quot;Carlito, Normal&quot;;text-align:center;writing-mode:lr-tb;text-anchor:middle;fill:#fff;fill-opacity:1;stroke-width:1.06667px">Single Playing Card from:</tspan><tspan x="472.194" y="-875.813" style="font-style:normal;font-variant:normal;font-weight:400;font-stretch:normal;font-size:48px;line-height:125%;font-family:Carlito;-inkscape-font-specification:&quot;Carlito, Normal&quot;;text-align:center;writing-mode:lr-tb;text-anchor:middle;fill:#fff;fill-opacity:1;stroke-width:1.06667px">Standard Edition - Color Set - Bordered </tspan><tspan x="472.194" y="-762.48" style="font-style:normal;font-variant:normal;font-weight:400;font-stretch:normal;font-size:48px;line-height:125%;font-family:Carlito;-inkscape-font-specification:&quot;Carlito, Normal&quot;;text-align:center;writing-mode:lr-tb;text-anchor:middle;fill:#faa;fill-opacity:1;stroke-width:1.06667px">Copyright 2011, 2020 - Chris Aguilar - conjurenation@gmail.com</tspan><tspan x="472.194" y="-649.147" style="font-style:normal;font-variant:normal;font-weight:400;font-stretch:normal;font-size:48px;line-height:125%;font-family:Carlito;-inkscape-font-specification:&quot;Carlito, Normal&quot;;text-align:center;writing-mode:lr-tb;text-anchor:middle;fill:#fff;fill-opacity:1;stroke-width:1.06667px">https://totalnonsense.com/open-source-vector-playing-cards/</tspan><tspan x="472.194" y="-535.813" style="font-style:normal;font-variant:normal;font-weight:400;font-stretch:normal;font-size:48px;line-height:125%;font-family:Carlito;-inkscape-font-specification:&quot;Carlito, Normal&quot;;text-align:center;writing-mode:lr-tb;text-anchor:middle;fill:#faa;fill-opacity:1;stroke-width:1.06667px">Licensed under:</tspan><tspan x="472.194" y="-475.813" style="font-style:normal;font-variant:normal;font-weight:400;font-stretch:normal;font-size:48px;line-height:125%;font-family:Carlito;-inkscape-font-specification:&quot;Carlito, Normal&quot;;text-align:center;writing-mode:lr-tb;text-anchor:middle;fill:#faa;fill-opacity:1;stroke-width:1.06667px">LGPL 3.0</tspan><tspan x="472.194" y="-415.813" style="font-style:normal;font-variant:normal;font-weight:400;font-stretch:normal;font-size:48px;line-height:125%;font-family:Carlito;-inkscape-font-specification:&quot;Carlito, Normal&quot;;text-align:center;writing-mode:lr-tb;text-anchor:middle;fill:#faa;fill-opacity:1;stroke-width:1.06667px">https://www.gnu.org/licenses/lgpl-3.0.html</tspan><tspan x="472.194" y="-302.48" style="font-style:normal;font-variant:normal;font-weight:400;font-stretch:normal;font-size:48px;line-height:125%;font-family:Carlito;-inkscape-font-specification:&quot;Carlito, Normal&quot;;text-align:center;writing-mode:lr-tb;text-anchor:middle;fill:#fff;fill-opacity:1;stroke-width:1.06667px">Each Card Measures (63mm x 88mm)</tspan></text></g></svg>