<svg xmlns="http://www.w3.org/2000/svg" width="261.12" height="355.2"><rect width="223.23" height="311.81" x="260.43" y="370.28" fill="#fff" rx="10.678" ry="10.664" transform="matrix(1.1697 0 0 1.1392 -304.578 -421.838)"/><path fill="#c8102e" d="M70.131 167.296s-5.458-8.722-12.822-18.975c-4.925-6.862-8.863-14.292-9.23-20.692-.42-7.311 3.556-14.645 10.752-15 7.192-.356 10.112 5.636 11.3 10.577 1.188-4.94 4.108-10.933 11.3-10.578 7.196.356 11.171 7.69 10.751 15-.366 6.4-4.304 13.83-9.23 20.693-7.363 10.254-12.821 18.975-12.821 18.975zM20.264 79.733c0-.004-2.603-3.634-6.113-7.907-2.349-2.859-4.226-5.955-4.4-8.621-.2-3.047 1.694-6.103 5.125-6.25 3.43-.149 4.821 2.348 5.388 4.407.566-2.059 1.958-4.556 5.387-4.408 3.431.149 5.326 3.205 5.126 6.25-.175 2.667-2.052 5.763-4.4 8.622-3.511 4.273-6.111 7.904-6.113 7.907zM241.105 275.525s-2.602 3.634-6.112 7.907c-2.349 2.859-4.226 5.955-4.4 8.621-.201 3.047 1.694 6.103 5.125 6.25 3.429.149 4.82-2.348 5.387-4.407.567 2.059 1.959 4.556 5.388 4.408 3.43-.148 5.326-3.204 5.126-6.25-.175-2.667-2.052-5.763-4.4-8.622-3.511-4.273-6.114-7.907-6.114-7.907zM70.131 91.945s-5.458-8.721-12.822-18.975c-4.925-6.862-8.863-14.291-9.23-20.692-.42-7.31 3.556-14.644 10.752-15 7.192-.355 10.112 5.637 11.3 10.577 1.188-4.94 4.108-10.932 11.3-10.577 7.196.356 11.171 7.69 10.751 15-.366 6.4-4.304 13.83-9.23 20.692-7.363 10.254-12.821 18.975-12.821 18.975zM191.237 167.296s-5.458-8.722-12.822-18.975c-4.925-6.862-8.864-14.292-9.23-20.692-.42-7.311 3.555-14.645 10.752-15 7.192-.356 10.111 5.636 11.3 10.577 1.188-4.94 4.108-10.933 11.3-10.578 7.196.356 11.171 7.69 10.751 15-.366 6.4-4.304 13.83-9.23 20.693-7.363 10.254-12.821 18.975-12.821 18.975zM191.237 91.945s-5.458-8.721-12.822-18.975c-4.925-6.862-8.864-14.291-9.23-20.692-.42-7.31 3.555-14.644 10.752-15 7.192-.355 10.111 5.637 11.3 10.577 1.188-4.94 4.108-10.932 11.3-10.577 7.196.356 11.171 7.69 10.751 15-.366 6.4-4.304 13.83-9.23 20.692-7.363 10.254-12.821 18.975-12.821 18.975zM130.684 204.97s-5.459-8.721-12.822-18.975c-4.926-6.862-8.864-14.292-9.23-20.692-.42-7.31 3.555-14.645 10.752-15 7.192-.355 10.111 5.637 11.3 10.577 1.188-4.94 4.108-10.933 11.3-10.577 7.196.355 11.171 7.69 10.751 15-.366 6.4-4.304 13.83-9.23 20.692-7.363 10.254-12.821 18.975-12.821 18.975zM191.237 187.961s-5.458 8.722-12.822 18.975c-4.925 6.862-8.864 14.292-9.23 20.692-.42 7.311 3.555 14.645 10.752 15 7.192.356 10.111-5.636 11.3-10.577 1.188 4.94 4.108 10.933 11.3 10.578 7.196-.356 11.171-7.69 10.751-15-.366-6.4-4.304-13.83-9.23-20.693-7.363-10.254-12.821-18.975-12.821-18.975zM70.131 187.961s-5.458 8.722-12.822 18.975c-4.925 6.862-8.863 14.292-9.23 20.692-.42 7.311 3.556 14.645 10.752 15 7.192.356 10.112-5.636 11.3-10.577 1.188 4.94 4.108 10.933 11.3 10.578 7.196-.356 11.171-7.69 10.751-15-.366-6.4-4.304-13.83-9.23-20.693-7.363-10.254-12.821-18.975-12.821-18.975zM191.237 263.312s-5.458 8.721-12.822 18.975c-4.925 6.862-8.864 14.291-9.23 20.692-.42 7.31 3.555 14.644 10.752 15 7.192.355 10.111-5.637 11.3-10.577 1.188 4.94 4.108 10.932 11.3 10.577 7.196-.356 11.171-7.69 10.751-15-.366-6.4-4.304-13.83-9.23-20.692-7.363-10.254-12.821-18.975-12.821-18.975zM70.131 263.312s-5.458 8.721-12.822 18.975c-4.925 6.862-8.863 14.291-9.23 20.692-.42 7.31 3.556 14.644 10.752 15 7.192.355 10.112-5.637 11.3-10.577 1.188 4.94 4.108 10.932 11.3 10.577 7.196-.356 11.171-7.69 10.751-15-.366-6.4-4.304-13.83-9.23-20.692-7.363-10.254-12.821-18.975-12.821-18.975zM9.499 46.16l3.53-1.09c1.335 3.466 4.025 4.492 6.874 4.27 5.11-.397 6.808-5.961 7.19-10.88-1.991 2.058-4.983 3.102-7.532 2.996-8.148-.425-10.234-6.777-10.309-13.426-.223-5.606 2.157-9.666 6.238-11.531 2.163-.944 7.114-.944 9.288.174 4.993 2.566 6.845 6.998 6.51 17.58 0 8.706-1.899 18.845-11.48 19.066-5.533.746-9.74-3.449-10.31-7.16zm13.87-9.54c1.662-1.025 2.598-1.987 3.344-3.427.61-1.182.822-1.8.646-4.246-.452-6.312-3.848-9.895-8.777-9.185-2.749.403-4.253 1.9-5.116 4.686-1.593 5.15.429 11.176 4.213 12.563 1.702.63 4.334.449 5.69-.39zM251.87 309.13l-3.532 1.09c-1.334-3.467-4.024-4.493-6.873-4.271-5.11.397-6.808 5.961-7.19 10.88 1.991-2.058 4.982-3.102 7.532-2.996 8.148.425 10.234 6.777 10.309 13.426.223 5.605-2.157 9.666-6.238 11.531-2.163.944-7.114.944-9.289-.175-4.992-2.565-6.844-6.997-6.508-17.58 0-8.705 1.897-18.844 11.479-19.065 5.533-.746 9.74 3.448 10.31 7.16zm-13.871 9.539c-1.662 1.025-2.598 1.987-3.344 3.426-.61 1.183-.822 1.8-.646 4.247.452 6.312 3.848 9.895 8.776 9.185 2.75-.403 4.254-1.9 5.117-4.686 1.593-5.15-.429-11.176-4.213-12.563-1.702-.63-4.334-.45-5.69.39z"/><g transform="translate(-302.07 164.05)"><rect width="1659.9" height="794.4" x="-356.47" y="-1029.7" fill="#006614" rx="144.48" ry="124.68"/><text xml:space="preserve" x="472.194" y="-935.813" fill="#fff" stroke-width="1.067" font-family="Carlito" font-size="42.667" letter-spacing="0" style="line-height:125%" text-anchor="middle" word-spacing="0"><tspan x="472.194" y="-935.813" font-size="48" style="line-height:125%">Single Playing Card from:</tspan><tspan x="472.194" y="-875.813" font-size="48" style="line-height:125%">Standard Edition - Color Set - Bordered </tspan><tspan x="472.194" y="-762.48" fill="#faa" font-size="48" style="line-height:125%">Copyright 2011, 2020 - Chris Aguilar - conjurenation@gmail.com</tspan><tspan x="472.194" y="-649.147" font-size="48" style="line-height:125%">https://totalnonsense.com/open-source-vector-playing-cards/</tspan><tspan x="472.194" y="-535.813" fill="#faa" font-size="48" style="line-height:125%">Licensed under:</tspan><tspan x="472.194" y="-475.813" fill="#faa" font-size="48" style="line-height:125%">LGPL 3.0</tspan><tspan x="472.194" y="-415.813" fill="#faa" font-size="48" style="line-height:125%">https://www.gnu.org/licenses/lgpl-3.0.html</tspan><tspan x="472.194" y="-302.48" font-size="48" style="line-height:125%">Each Card Measures (63mm x 88mm)</tspan></text></g></svg>